/* XPM */
static char * arch_linux_logo_icon_145482_xpm[] = {
"20 20 5 1",
" 	c None",
".	c #ECEFF4",
"+	c #ECEFF3",
"@	c #ECEFF5",
"#	c #EDEFF3",
"                    ",
"         .          ",
"         .          ",
"        ...         ",
"        ...         ",
"       .....        ",
"        ....        ",
"      .......       ",
"      .......       ",
"     +........      ",
"     .........      ",
"    .....@....@     ",
"    ....   ....     ",
"   .....   .....    ",
"   ....     ....    ",
"  .....     ....    ",
"  ....+     #....   ",
" ...           ...  ",
" .               .  ",
"                    "};
