/* XPM */
static char * Haskell_Logo_xpm[] = {
"20 20 78 1",
" 	c None",
".	c #6F6F6F",
"+	c #838381",
"@	c #848482",
"#	c #7D7D7C",
"$	c #DEDDDC",
"%	c #E5E4E2",
"&	c #C7C3CA",
"*	c #7F7F7D",
"=	c #6F6E6F",
"-	c #BEBAC4",
";	c #E3E2E0",
">	c #6F6F70",
",	c #80807E",
"'	c #DDDCDC",
")	c #C8C6CB",
"!	c #6F6E70",
"~	c #BBB8C3",
"{	c #6E6E6E",
"]	c #DDDBDB",
"^	c #CBC7CD",
"/	c #7E7E7C",
"(	c #707070",
"_	c #BBB6C2",
":	c #E4E3E1",
"<	c #DFD4E2",
"[	c #EFEBF3",
"}	c #EEEBF2",
"|	c #F0EDF4",
"1	c #F1EFF7",
"2	c #E9E1EC",
"3	c #DBDADA",
"4	c #CBC9CF",
"5	c #D4C3D5",
"6	c #F8F8FF",
"7	c #706F70",
"8	c #B8B5C1",
"9	c #EDE8F1",
"0	c #DAD9D9",
"a	c #CDCBCF",
"b	c #7E7E7D",
"c	c #DDDBDA",
"d	c #D1BCCF",
"e	c #D4C1D4",
"f	c #D5C4D6",
"g	c #D2BFD2",
"h	c #CDCCD0",
"i	c #70706F",
"j	c #EAE5EE",
"k	c #BDBAC3",
"l	c #E2E1E0",
"m	c #D9D8D9",
"n	c #D0CED1",
"o	c #EBE5EF",
"p	c #E2D9E5",
"q	c #717070",
"r	c #DFDDDC",
"s	c #C5C3CB",
"t	c #B4AFBD",
"u	c #6F6E6E",
"v	c #BFBCC6",
"w	c #E2E1DF",
"x	c #D6D5D6",
"y	c #D0CFD1",
"z	c #7C7C7B",
"A	c #DFDEDD",
"B	c #C4C1C9",
"C	c #B5B2C1",
"D	c #E4E3E2",
"E	c #81817F",
"F	c #6E6D6E",
"G	c #C1BEC7",
"H	c #E2E0DF",
"I	c #D5D3D5",
"J	c #D2D0D3",
"K	c #797977",
"L	c #C3C0C8",
"M	c #B5AFBD",
"                    ",
".+@# $%%&           ",
" *@@=-%%;           ",
" >@@, '%%)          ",
"  *@@!~%%;          ",
"  {@@* ]%%^         ",
"   /@@(_%%: <[}|||12",
"   {@@, 3%%45666666[",
"    /@@78%%: 966666[",
"    {@@, 0%%a       ",
"    >@@b c%%%  deffg",
"    ,@@.-%%%%h 6666[",
"   i@@/ '%%%%: j666[",
"   ,@@.k%%lm%%n ooop",
"  q@@/ r%%st%%:     ",
"  ,@@uv%%w  x%%y    ",
" (@@z A%%B  C%%D    ",
" E@@FG%%H    I%%J   ",
"=##K ]wwL    MwwA   ",
"                    "};
