/* XPM */
static char *haskell_logo_20x20[] = {
/* columns rows colors chars-per-pixel */
"20 14 10 1 ",
"  c None",
". c #626262",
"X c #646464",
"o c #656565",
"O c #666666",
"+ c #E5E4E2",
"@ c #E6E5E3",
"# c #EAEDF2",
"$ c #EBEEF3",
"% c #ECEFF4",
/* pixels */
"OOOO ++++           ",
" OOO  +++           ",
" OOOO ++++          ",
"  OOO. +++          ",
"   OOO  +++  $%%%%%$",
"   OOOO ++++ $%%%%%$",
"    OOO  +++        ",
"    OOO  ++++       ",
"   OOOO ++++++ $%%%$",
"   OOO  ++++++  $%%$",
"  OOO. +++ ++++     ",
" OOOO ++++  ++++    ",
" OOO  +++    +++    ",
"OOOO ++++     +++   "
};
