/* XPM */
static char *lbar[] = {
/* columns rows colors chars-per-pixel */
"16 16 48 1 ",
"  c None",
". c #010101",
"X c #020202",
"o c #060606",
"O c gray3",
"+ c #0B0B0B",
"@ c gray6",
"# c gray7",
"$ c #161615",
"% c #20201F",
"& c #262625",
"* c #272726",
"= c #373736",
"- c #383837",
"; c #3B3B3A",
": c #3C3C3B",
"> c #494947",
", c #525250",
"< c #555553",
"1 c #585856",
"2 c #61615F",
"3 c #656563",
"4 c #6A6A68",
"5 c #777774",
"6 c #797976",
"7 c #8B8B88",
"8 c #8C8C89",
"9 c #8F8F8C",
"0 c #999995",
"q c #9C9C98",
"w c #A0A09C",
"e c #A1A19D",
"r c #A7A7A3",
"t c #AFAFAB",
"y c #B4B4B0",
"u c #C0C0BB",
"i c #CCCCC7",
"p c #D3D3CE",
"a c #D5D5D0",
"s c #DFDFDA",
"d c #E1E1DC",
"f c #E2E2DD",
"g c #E6E6E1",
"h c #E7E7E2",
"j c #F3F3ED",
"k c #F6F6F0",
"l c #FDFDF7",
"z c #FEFEF8",
/* pixels */
"                ",
"                ",
"     =t,        ",
"    -wpd.       ",
"    . &l:       ",
"       u8       ",
"      .da       ",
"      ;iz%      ",
"      q1a4      ",
"     @g+9y      ",
"     5t >k@     ",
"    +g2 +j3     ",
"    7l$  rs6#   ",
"   o0<   &w-    ",
"                ",
"                "
};
