/* XPM */
static char * white_lambda_xpm[] = {
"20 20 2 1",
" 	c None",
".	c #ECEFF4",
"                    ",
"      ....          ",
"     .....          ",
"     . ....         ",
"        ...         ",
"        ...         ",
"         ..         ",
"        ....        ",
"        ....        ",
"        ....        ",
"       ......       ",
"       .. ...       ",
"      ...  ..       ",
"      ..   ..       ",
"      ..   ...      ",
"     ...   ...      ",
"    ....    ....    ",
"    ...     .....   ",
"    ..       ..     ",
"                    "};
