/* XPM */
static char *xmonad_logo_2022[] = {
/* columns rows colors chars-per-pixel */
"20 20 3 1 ",
"  c None",
". c #FF003F",
"X c #E5E4E2",
/* pixels */
" .....         XXXX ",
"  .....       XXXXX ",
"  .....      XXXXX  ",
"   .....     XXXX   ",
"    .....     XX    ",
"    ......    XX    ",
"     .....          ",
"      .....         ",
"       .....        ",
"       .....        ",
"       ......       ",
"      ........      ",
"      .........     ",
"     ..........     ",
"    .....  .....    ",
"   .....    .....   ",
"   ....      .....  ",
"  .....      .....  ",
" .....        ..... ",
".....          ....."
};
